<?xml version="1.0" encoding="UTF-8"?>
<svg xmlns="http://www.w3.org/2000/svg" xmlns:xlink="http://www.w3.org/1999/xlink" width="72pt" height="72pt" viewBox="0 0 72 72" version="1.1">
<g id="surface1">
<path style=" stroke:none;fill-rule:nonzero;fill:rgb(60.392157%,28.627451%,57.647059%);fill-opacity:1;" d="M 67.695312 21.285156 C 67.695312 20.09375 67.441406 19.019531 66.914062 18.121094 C 66.40625 17.222656 65.644531 16.480469 64.628906 15.894531 C 56.191406 11.035156 47.738281 6.171875 39.300781 1.308594 C 37.015625 0 34.828125 0.0390625 32.5625 1.367188 C 29.203125 3.339844 12.371094 12.984375 7.371094 15.894531 C 5.300781 17.085938 4.304688 18.921875 4.304688 21.304688 L 4.304688 50.675781 C 4.304688 51.847656 4.558594 52.882812 5.046875 53.78125 C 5.554688 54.699219 6.335938 55.480469 7.371094 56.085938 C 12.390625 58.996094 29.203125 68.621094 32.5625 70.613281 C 34.828125 71.941406 37.035156 72 39.300781 70.671875 C 47.738281 65.789062 56.191406 60.949219 64.628906 56.085938 C 65.683594 55.480469 66.445312 54.71875 66.953125 53.78125 C 67.441406 52.882812 67.695312 51.847656 67.695312 50.675781 Z M 67.695312 21.285156 "/>
<path style=" stroke:none;fill-rule:nonzero;fill:rgb(41.568627%,8.235294%,46.666667%);fill-opacity:1;" d="M 36.078125 35.875 L 5.007812 53.761719 C 5.515625 54.679688 6.296875 55.460938 7.332031 56.066406 C 12.351562 58.976562 29.164062 68.601562 32.523438 70.59375 C 34.789062 71.921875 36.996094 71.980469 39.261719 70.652344 C 47.699219 65.769531 56.152344 60.929688 64.589844 56.066406 C 65.644531 55.460938 66.40625 54.699219 66.914062 53.761719 Z M 36.078125 35.875 "/>
<path style=" stroke:none;fill-rule:nonzero;fill:rgb(41.568627%,8.235294%,46.666667%);fill-opacity:1;" d="M 26.878906 41.164062 C 28.695312 44.328125 32.09375 46.457031 35.980469 46.457031 C 39.90625 46.457031 43.324219 44.308594 45.121094 41.105469 L 36.078125 35.875 Z M 26.878906 41.164062 "/>
<path style=" stroke:none;fill-rule:nonzero;fill:rgb(50.588235%,18.823529%,51.764706%);fill-opacity:1;" d="M 67.695312 21.285156 C 67.695312 20.09375 67.441406 19.019531 66.914062 18.121094 L 36.078125 35.875 L 66.953125 53.761719 C 67.441406 52.863281 67.695312 51.828125 67.695312 50.65625 Z M 67.695312 21.285156 "/>
<path style=" stroke:none;fill-rule:nonzero;fill:rgb(100%,100%,100%);fill-opacity:1;" d="M 45.121094 41.105469 C 43.324219 44.289062 39.90625 46.457031 35.980469 46.457031 C 32.074219 46.457031 28.675781 44.328125 26.878906 41.164062 C 26 39.621094 25.492188 37.863281 25.492188 35.972656 C 25.492188 30.171875 30.179688 25.484375 35.980469 25.484375 C 39.847656 25.484375 43.226562 27.59375 45.042969 30.71875 L 54.199219 25.445312 C 50.546875 19.15625 43.753906 14.917969 35.960938 14.917969 C 24.320312 14.917969 14.910156 24.351562 14.910156 35.972656 C 14.910156 39.777344 15.925781 43.371094 17.703125 46.457031 C 21.335938 52.765625 28.167969 57.023438 35.980469 57.023438 C 43.8125 57.023438 50.644531 52.746094 54.277344 46.398438 Z M 56.699219 30.992188 L 54.609375 30.992188 L 54.609375 41.085938 L 56.699219 41.085938 Z M 61.328125 30.992188 L 59.238281 30.992188 L 59.238281 41.085938 L 61.328125 41.085938 Z M 61.328125 30.992188 "/>
<path style=" stroke:none;fill-rule:nonzero;fill:rgb(100%,100%,100%);fill-opacity:1;" d="M 63.027344 32.691406 L 52.929688 32.691406 L 52.929688 34.78125 L 63.027344 34.78125 Z M 63.027344 37.296875 L 52.929688 37.296875 L 52.929688 39.386719 L 63.027344 39.386719 Z M 63.027344 37.296875 "/>
</g>
</svg>
